<svg width="191" height="101" viewBox="0 0 191 101" fill="none" xmlns="http://www.w3.org/2000/svg">
<g clip-path="url(#clip0_20_3308)">
<path d="M43.118 65.2413C42.4645 66.7364 42.4447 67.2512 42.4447 67.271C42.4447 68.9641 43.3655 70.4493 45.2665 71.8156C47.7318 73.5879 51.2962 75.6572 55.8803 77.9443C58.7219 79.2809 60.5833 80.2611 61.5635 80.9443C62.8803 81.8156 64.7714 83.2809 67.316 85.3899C70.7021 88.2809 73.6229 90.4988 75.9991 91.9938C78.1081 93.3106 80.1378 93.9542 82.2071 93.9542C83.2962 93.9542 84.3061 93.6869 85.2863 93.1324L85.3358 93.1027L85.3952 93.073C87.2566 92.1423 89.0189 90.6473 90.6427 88.6176C92.1279 86.7562 92.8803 85.0037 92.8803 83.4097C92.8803 82.3007 92.6526 81.2413 92.1972 80.1423C91.6526 78.8552 90.8011 77.2116 89.6724 75.2809L89.6328 75.2116L89.5932 75.1423L88.1972 72.3503L88.1774 72.3205L88.1675 72.2908C83.3952 62.0631 79.1972 50.875 75.712 39.0235C72.9794 29.2215 70.8308 19.8255 69.2962 11.0433C68.7516 8.27104 68.1378 6.15223 67.4843 4.79579C67.1081 4.01361 66.712 3.875 66.0883 3.875C65.2368 3.875 64.2764 4.16213 63.2071 4.72649C60.7714 5.98391 58.7219 7.78589 57.1081 10.1027C55.3358 12.6374 53.5239 15.8651 51.7318 19.6968L47.1774 29.9443C44.2467 36.4889 42.0784 41.2413 40.5437 44.4889C37.9001 50.0235 33.6526 58.3106 27.91 69.1126L25.118 74.4394L25.0883 74.5087L25.0487 74.5681C24.316 75.7859 23.7912 76.7166 23.4942 77.3205L23.4546 77.4097L23.4051 77.4889C16.9793 88.2314 15.6328 93.0037 15.6328 95.1126C15.6328 95.875 15.7912 96.1225 15.7912 96.1225C16.1081 96.4394 16.3655 96.5087 16.6526 96.5087C17.8902 96.5087 19.4645 95.5978 21.2269 93.8651C23.3259 91.8057 24.8407 89.9344 25.7318 88.3007L25.7615 88.2512L25.7912 88.2017C26.1081 87.6671 27.415 85.172 31.7912 76.3106C34.6625 70.3998 36.9496 65.9047 38.5833 62.9839L39.1279 61.8948C40.0883 60.3007 40.7714 59.0532 41.1576 58.2116L41.2071 58.1027L41.2665 58.0037C46.6328 48.6077 51.019 40.5285 54.2863 33.9839L57.5437 27.4691L59.0388 34.5978C60.3754 40.9344 62.3259 48.7463 64.8506 57.8156L66.4645 63.6275L61.1774 60.7265C59.5932 59.8552 56.2269 58.6572 52.8704 58.6572C49.514 58.6572 46.3556 60.0631 43.4447 64.578L43.118 65.2413Z" fill="#55E7FF"/>
<path d="M169.644 94.2345C171.436 86.5514 174.129 78.4821 177.624 70.2741C177.763 69.888 177.812 69.6405 177.822 69.5217C177.614 69.4424 177.129 69.3137 176.178 69.3137C174.515 69.3137 172.723 69.7296 170.852 70.5613C168.881 71.4325 168.109 72.2543 167.802 72.8088C166.079 76.8682 165.426 78.4325 165.188 79.0266L163.495 83.2741L160.782 79.591C156.852 74.2543 151.812 70.7791 145.367 68.9672L140.604 67.6306L144.466 64.5415C148.198 61.5514 152.109 58.0563 156.089 54.1652L156.129 54.1256L156.169 54.086L158.713 51.7989C162.674 48.3335 165.763 45.185 167.941 42.4028C169.881 39.9177 170.832 37.2939 170.832 34.3731C170.832 33.6999 170.654 33.5514 170.594 33.5019C170.268 33.2444 169.624 33.0959 168.802 33.0959C168.664 33.0959 168.05 33.1256 166.178 33.5415L165.525 33.69L164.881 33.492C155.04 30.4623 145.396 27.6504 136.238 25.1256L135.525 24.9276L135.03 24.3731C134.842 24.1652 134.238 23.9375 133.109 23.9375C131.169 23.9375 129.268 24.4722 127.307 25.5811C126.268 26.1652 125.03 27.0761 124.98 28.1256C124.386 43.3533 123.881 58.8682 123.456 74.2048L123.426 75.3236L122.584 76.0563C122.198 76.3929 121.555 77.0266 121.555 77.5712C121.555 77.6702 121.743 77.8979 122.109 78.1454L123.238 78.9276L123.208 80.2939L122.832 97.7989V97.8781C123.079 98.0068 123.565 98.1652 124.485 98.1652C126.426 98.1652 128.535 97.5811 130.743 96.4226C132.654 95.4226 133.367 94.5415 133.386 94.086L134.02 75.7098L134.129 72.5217L137.218 73.3434C142.862 74.8484 147.545 78.1751 151.149 83.2147C154.674 88.1652 156.654 93.69 157.02 99.6504C157.06 100.294 157.258 100.423 157.357 100.482C157.822 100.789 158.525 100.947 159.446 100.947C160.782 100.947 162.169 100.631 163.574 100.017C164.911 99.4325 165.881 98.7494 166.456 97.9969L166.693 97.69L167.01 97.4721C168.466 96.4127 169.376 95.3137 169.644 94.2345ZM134.238 66.3335L134.376 60.7296L135.01 34.9375L135.089 31.6009L138.277 32.5613C147.159 35.2444 153.961 37.2048 158.515 38.383L161.664 39.1949L160.119 42.0464C158.901 44.2939 157.139 46.5514 154.901 48.7494C152.763 50.8484 149.98 53.2543 146.634 55.9078L143.07 58.8583C142.693 59.2246 141.733 60.086 138.545 62.7296L134.238 66.3335Z" fill="#55E7FF"/>
<path d="M30.8317 64.8909C30.8317 70.7027 26.2178 74.0691 17.3861 74.0691H0V40.4453H16.4257C24.8317 40.4453 29.1584 43.9503 29.1584 49.1879C29.1584 52.5443 27.4257 55.1384 24.6931 56.5839C28.4356 57.7819 30.8317 60.6631 30.8317 64.8909ZM7.73267 46.3067V54.2275H15.4653C19.2574 54.2275 21.3267 52.881 21.3267 50.2374C21.3267 47.5938 19.2574 46.2968 15.4653 46.2968H7.73267V46.3067ZM23 64.079C23 61.2473 20.8416 59.9008 16.802 59.9008H7.73267V68.2077H16.8119C20.8416 68.2077 23 66.9602 23 64.079Z" fill="white"/>
<path d="M58.1601 74.0691L51.675 64.7027H44.5166V74.0691H36.7344V40.4453H51.2888C60.269 40.4453 65.8928 45.1087 65.8928 52.6433C65.8928 57.6829 63.3482 61.3859 58.9819 63.2572L66.5265 74.0691H58.1601ZM50.8631 46.7819H44.5265V58.5047H50.8631C55.6156 58.5047 58.0215 56.2968 58.0215 52.6433C58.0215 48.9899 55.6156 46.7819 50.8631 46.7819Z" fill="white"/>
<path d="M135.764 40.3148C131.348 40.3148 117.942 40.4435 117.942 40.4435V73.8396C117.942 79.5524 114.922 82.295 110.259 82.295C105.595 82.295 102.665 79.6218 102.586 74.0574V55.6614C102.586 55.5524 102.546 54.7208 102.546 54.7208C102.17 45.097 96.1004 39.8594 87.1698 39.8594C78.2391 39.8594 71.7539 45.4336 71.7539 55.6614V74.0574H79.4371V54.9386C79.4371 49.2257 82.4569 46.4831 87.1202 46.4831C91.7836 46.4831 94.7143 49.1564 94.7935 54.7208V73.1168C94.7935 73.2257 94.8331 74.0574 94.8331 74.0574C95.2094 83.6812 101.279 88.9188 110.209 88.9188C119.14 88.9188 125.219 83.6812 125.586 74.0574L125.744 46.5128C125.744 46.5128 131.318 46.493 133.546 46.493C137.912 46.493 140.704 49.0871 140.704 54.6119V74.0673H148.487V54.3742C148.487 45.0079 143.734 40.3148 135.764 40.3148Z" fill="white"/>
<path d="M156.289 40.4453H171.566C182.566 40.4453 190.101 47.0691 190.101 57.2572C190.101 67.4453 182.556 74.0691 171.566 74.0691H156.289V40.4453ZM171.18 67.6829C177.853 67.6829 182.23 63.6928 182.23 57.2572C182.23 50.8216 177.863 46.8315 171.18 46.8315H164.071V67.673H171.18V67.6829Z" fill="white"/>
<path d="M110.86 2.56907C109.315 3.37106 108.345 4.24234 108.276 4.89581L108.266 4.96511L108.256 5.03442L106.731 14.4404C106.711 14.5493 106.711 14.6285 106.721 14.678C107.088 14.9255 107.672 15.0443 108.414 15.0443C110.266 15.0443 112.216 14.4998 114.206 13.4404C115.81 12.579 116.702 11.6681 116.83 10.7473C117.504 6.50967 117.969 3.34135 118.216 1.27205L118.226 1.22254L118.236 1.17304C118.236 1.14333 118.246 1.12353 118.246 1.10373C118.028 1.03442 117.593 0.945312 116.81 0.945312C114.939 0.945312 112.939 1.48987 110.86 2.56907Z" fill="#55E7FF"/>
<path d="M117.186 27.2809C116.751 27.0136 116.097 26.875 115.285 26.875C113.364 26.875 111.384 27.4295 109.404 28.5285C108.533 29.0136 107.077 29.9641 107.028 30.9443L103.216 99.8255C103.206 100.152 103.265 100.38 103.325 100.449C103.345 100.469 103.711 100.835 105.256 100.835C107.186 100.835 109.166 100.281 111.137 99.1819C112.196 98.5978 113.463 97.677 113.513 96.6473L117.196 27.6374C117.206 27.4394 117.196 27.3304 117.186 27.2809Z" fill="#55E7FF"/>
<path d="M83.021 54.9532C91.318 54.6859 101.328 56.3592 109.704 56.171C119.754 55.8542 130.585 56.5473 140.575 57.1809C140.546 57.6562 139.665 58.3196 140.486 58.6166C143.773 59.5473 143.714 60.4978 143.655 61.4582C143.625 61.9334 141.16 61.2998 141.962 61.8344C139.467 61.676 135.278 61.6463 137.754 62.2898C138.556 62.8245 141.922 62.5572 142.704 63.3295C143.496 64.1017 141.783 64.7057 142.566 65.478C143.397 65.5275 145.061 65.6364 145.902 65.6859C146.704 66.2205 144.981 67.072 145.813 67.1215C148.278 67.7552 151.625 67.7354 154.962 67.9433C154.932 68.4186 155.734 68.9532 154.051 69.0819C124.872 67.6958 94.823 66.7453 65.7239 64.1611C62.4071 63.7057 64.9715 62.9136 67.516 62.3592C66.6645 62.5473 66.714 61.8245 65.8626 62.0126C65.9121 61.2998 67.6546 60.2106 71.0012 60.1809C70.1695 60.1314 69.3378 60.072 68.5061 60.0225C67.6843 59.7354 68.5556 59.3097 68.5853 58.8245C69.417 58.874 70.2487 58.9334 70.2685 58.6958C70.2883 58.4582 70.318 57.9829 70.3279 57.7354C69.4962 57.6859 68.6645 57.6265 68.6744 57.3889C68.6942 57.1512 68.7239 56.676 68.7338 56.4285C70.417 56.2998 72.8824 56.9334 74.5655 56.8047L74.615 56.0918C72.9616 55.7453 70.4467 55.8245 68.7833 55.7156C69.6348 55.5275 69.6447 55.2898 69.6744 54.8146C72.1893 54.7354 74.6447 55.6166 77.1794 55.0522C76.3477 55.0027 75.516 54.9433 74.6843 54.8938C76.4071 53.8146 80.5061 55.0324 83.021 54.9532Z" fill="#F8BD99"/>
</g>
<defs>
<clipPath id="clip0_20_3308">
<rect width="190.099" height="100" fill="white" transform="translate(0 0.945312)"/>
</clipPath>
</defs>
</svg>
